<svg xmlns="http://www.w3.org/2000/svg" viewBox="0 0 786.89 226.66"><defs><style>.cls-1{isolation:isolate;}.cls-2,.cls-20,.cls-3,.cls-4,.cls-6{fill:#f1f5f9;}.cls-16,.cls-3{opacity:0.2;mix-blend-mode:multiply;}.cls-17,.cls-4{opacity:0.5;}.cls-5{opacity:0.22;}.cls-18,.cls-6{opacity:0.31;}.cls-7{fill:#3053a2;}.cls-8{fill:#3354a0;}.cls-9{fill:#00295b;}.cls-10{fill:#0085c9;}.cls-11{fill:#ffd071;}.cls-12{fill:#cecece;}.cls-13,.cls-18{fill:#fff;}.cls-14{fill:#3a3a3c;}.cls-15{fill:#f6f6f6;}.cls-16{fill:#bbbcc0;}.cls-17{fill:#d0e8f4;}.cls-19{fill:#5bb5dc;}.cls-20{font-size:155.65px;font-family:Kanit-SemiBold, Kanit;font-weight:600;}.cls-21{letter-spacing:-0.04em;}.cls-22{letter-spacing:-0.01em;}.cls-23{letter-spacing:0em;}</style></defs><title>자산 6</title><g class="cls-1"><g id="레이어_2" data-name="레이어 2"><g id="Layer_1" data-name="Layer 1"><path class="cls-2" d="M369.62,12.73c7.61,54.79-2.48,107.48,43,73.44,52.82-32.24,68.59-41.34,17.1-63.09C397.49,9.55,367.81-15.18,369.62,12.73Z"/><path class="cls-2" d="M556.89,47.8c-22.07-16-49.73-26.4-78.29-26.41h0c-163.47,15.94-186.76,212.4,0,205h0C619.07,228.82,651.8,123.68,556.89,47.8Z"/><path class="cls-2" d="M378.1,16.88c7.9,74.79,31.13,7.47,24.64,11.48C394.37,22.2,377,1.83,378.1,16.88Z"/><path class="cls-2" d="M584.87,12.84c-7.62,54.8,2.47,107.48-43,73.44C489.08,54,473.31,44.94,524.8,23.19,557,9.66,586.68-15.07,584.87,12.84Z"/><path class="cls-2" d="M576.38,17c-7.9,74.79-31.13,7.47-24.64,11.48C560.11,22.31,577.5,1.94,576.38,17Z"/><path class="cls-2" d="M488,74c40.1-62.94,40-19.09,67.22-39.23,11.21-.44,4,10,6.07,14.11,3.64,2.34,8.15,4.9,4.26,10.72C553.43,74,522.12,74.41,516.91,80.22,485.72,115.76,472.21,93.21,488,74Z"/><path class="cls-2" d="M467.69,71.65c-40.09-62.94-40-19.09-67.21-39.23-11.21-.44-4,10-6.07,14.11-3.65,2.34-8.15,4.9-4.27,10.72,12.1,14.39,43.42,14.81,48.63,20.62C470,113.41,483.47,90.86,467.69,71.65Z"/><path class="cls-2" d="M475.31,141.23,462.5,164.38h34.64C493.11,160.16,483.85,129.89,475.31,141.23Z"/><polygon class="cls-2" points="462.5 164.39 462.5 164.39 462.5 164.38 462.5 164.39"/><polygon class="cls-2" points="497.14 164.38 497.14 164.39 497.14 164.39 497.14 164.38"/><polygon class="cls-2" points="497.14 164.38 497.14 164.38 497.14 164.38 497.14 164.38"/><polygon class="cls-2" points="479.82 195.68 497.14 164.39 462.5 164.39 479.82 195.68"/><polygon class="cls-2" points="462.5 164.38 462.5 164.38 462.5 164.38 462.5 164.38"/><polygon class="cls-2" points="497.14 164.38 462.5 164.38 462.5 164.38 462.5 164.39 497.14 164.39 497.14 164.38 497.14 164.38"/><path class="cls-2" d="M483.28,111.48c-3.9,70.41-101,65.85-102.81,0C384.37,41.08,481.44,45.63,483.28,111.48Z"/><path class="cls-2" d="M578.92,111.36c-3.9,70.4-101,65.85-102.81,0C480,41,577.08,45.51,578.92,111.36Z"/><path class="cls-2" d="M478.58,111.42c-3.71,64.32-91.94,59.63-93.53,0C388.75,47.1,477,51.8,478.58,111.42Z"/><path class="cls-2" d="M463.61,111.42c-2.61,44.11-62.64,40.29-63.59,0C402.62,67.31,462.65,71.13,463.61,111.42Z"/><path class="cls-2" d="M574.22,111.42c-3.71,64.32-92,59.63-93.54,0C484.39,47.1,572.63,51.8,574.22,111.42Z"/><path class="cls-2" d="M559.25,111.42c-2.61,44.11-62.64,40.29-63.6,0C498.26,67.31,558.29,71.13,559.25,111.42Z"/><polygon class="cls-2" points="569.54 171.06 561.18 175.89 544.14 146.14 552.49 141.31 569.54 171.06"/><path class="cls-2" d="M572.8,186.23c-7.65,6.4-16.83-20.3-20.19-23.29l9.78-5.94C563.7,162.28,581.79,182,572.8,186.23Z"/><polygon class="cls-3" points="545.36 148.17 546.12 149.74 558.89 152.78 552.71 141.85 545.36 148.17"/><path class="cls-2" d="M560.8,106.5c-22.32-33.64-67.85-2.91-50.31,29.11C532.81,169.25,578.35,138.52,560.8,106.5Zm-12.63,36.19c-31.08,15.52-51.76-27-25-43.28C554.21,83.9,574.89,126.4,548.17,142.69Z"/><path class="cls-4" d="M557.29,108.54c-19.21-28.95-58.32-2.41-43.28,25C533.21,162.51,572.33,136,557.29,108.54Z"/><g class="cls-5"><path class="cls-2" d="M520.21,111.71c13.77-19.41,30-7.28,35.17,8.85,4.79-38.33-51.25-14.2-35.17-8.85Z"/></g><path class="cls-6" d="M556.57,124.33c2.21,3.58-6.92,5.08-3.14-.84C554.12,123.22,554.77,123,556.57,124.33Z"/><path class="cls-2" d="M553,162.79c.74-1,10.44-5,9.54-6.7C563.31,155,548.36,162,553,162.79Z"/><path class="cls-2" d="M557.1,132.65c-17.67,29.21-58.78,4.54-43.11-24.24,28.92-32.51,50.22,5.18,45.52,22.14,11.77-33.6-34.75-49.31-48.19-19.82C497,146.76,550.63,159,557.1,132.65Z"/><path class="cls-7" d="M380,24.42,386.18,88A13.38,13.38,0,0,0,406.7,98l48.92-31.23a13.38,13.38,0,0,0-.43-22.81l-60.31-29C385.46,9.41,379,13.54,380,24.42Z"/><path class="cls-8" d="M549.81,55.9C530,41.5,505.16,32.2,479.52,32.19h0c-25.65,0-50.48,9.31-70.3,23.71C386,72.75,360.58,108,360.58,135.37c0,25.41,10.58,44.12,30.29,59.32,21.8,16.83,60.78,21.53,88.63,21.53h0c27.84,0,66.82-4.7,88.63-21.53,19.7-15.2,30.28-33.91,30.28-59.32C598.43,108,573,72.75,549.81,55.9Z"/><path class="cls-9" d="M389.29,28.14l4.85,25.44c1.15,4.25,5.52,9,8.43,6.54L409,48.77c2.9-2.41,7.22-7.72,3.25-9.62L394.47,24C390.38,22,388.11,23.76,389.29,28.14Z"/><path class="cls-7" d="M576.56,24.51l-6.15,63.56a13.38,13.38,0,0,1-20.52,10L501,66.82A13.38,13.38,0,0,1,501.4,44l60.32-29C571.14,9.5,577.61,13.64,576.56,24.51Z"/><path class="cls-9" d="M567.3,28.24l-4.84,25.44c-1.15,4.25-5.52,9-8.43,6.54l-6.42-11.35c-2.91-2.42-7.23-7.72-3.26-9.62l17.78-15.18C566.22,22.1,568.49,23.86,567.3,28.24Z"/><path class="cls-10" d="M487.94,79.42c9.42-17.07,25.22-35.67,39.1-31.67,1.67.47,7.9,3,11.64,1.75,4-1.31,4.53-3.46,8.4-5,2.15-.86,6.17-.27,7.12,3.08.9,3.19-1.81,6.64-1,8.46.61,1.3.57.75,2.9,2.31,1.92,1.28,2.92,2.38,2.78,4.61-.26,4.09-5.55,8.55-11.11,10.61-23,8.57-29.4,6.61-38.15,14.77-6.69,6.24-5.72,8.44-13.28,12.46a10.36,10.36,0,0,1-14.13-3.69C478.85,91.54,486.61,81.83,487.94,79.42Z"/><path class="cls-10" d="M469.73,77.31c-9.42-17.07-25.22-35.67-39.1-31.68-1.67.48-7.9,3-11.65,1.76-4-1.31-4.52-3.46-8.39-5-2.16-.86-6.18-.27-7.12,3.08-.9,3.19,1.81,6.63,1,8.46-.6,1.3-.56.75-2.89,2.31-1.93,1.28-2.92,2.38-2.78,4.61.25,4.09,5.54,8.55,11.11,10.61,23.05,8.57,29.4,6.6,38.15,14.77,6.69,6.24,5.72,8.44,13.28,12.46A10.36,10.36,0,0,0,475.43,95C478.82,89.43,471.05,79.72,469.73,77.31Z"/><path class="cls-11" d="M476.57,139.78l-11.51,20.78h31.1l-11.51-20.78A4.57,4.57,0,0,0,476.57,139.78Z"/><polygon class="cls-11" points="465.06 160.57 465.06 160.57 465.06 160.57 465.06 160.57"/><polygon class="cls-11" points="496.16 160.57 496.16 160.57 496.16 160.57 496.16 160.57"/><polygon class="cls-11" points="496.16 160.56 496.16 160.56 496.16 160.57 496.16 160.56"/><polygon class="cls-11" points="480.61 188.66 496.16 160.57 465.06 160.57 480.61 188.66"/><polygon class="cls-11" points="465.06 160.56 465.06 160.57 465.06 160.56 465.06 160.56"/><polygon class="cls-11" points="496.16 160.56 465.06 160.56 465.06 160.57 465.06 160.57 496.16 160.57 496.16 160.57 496.16 160.56"/><circle class="cls-12" cx="437.57" cy="113.07" r="46.15"/><circle class="cls-12" cx="523.43" cy="112.96" r="46.15" transform="translate(73.43 403.21) rotate(-45)"/><circle class="cls-13" cx="437.51" cy="113.02" r="41.99" transform="translate(48.23 342.47) rotate(-45)"/><ellipse class="cls-14" cx="437.51" cy="113.02" rx="28.55" ry="28.66"/><circle class="cls-13" cx="523.38" cy="113.02" r="41.99" transform="translate(73.38 403.18) rotate(-45)"/><ellipse class="cls-14" cx="523.38" cy="113.02" rx="28.55" ry="28.66"/><polygon class="cls-15" points="561.16 166.56 553.66 170.9 538.36 144.19 545.86 139.85 561.16 166.56"/><path class="cls-9" d="M564.09,180.18l-.08,0c-2.37,1.36-5.12,1-6.15-.74L546,159.27l8.79-5.34,11.77,20.55C567.54,176.26,566.46,178.81,564.09,180.18Z"/><polygon class="cls-16" points="539.45 146.01 540.13 147.42 551.6 150.15 546.05 140.33 539.45 146.01"/><path class="cls-9" d="M553.32,108.6a26.09,26.09,0,1,0-9.52,35.65A26.1,26.1,0,0,0,553.32,108.6ZM542,141.09a22.44,22.44,0,1,1,8.19-30.66A22.43,22.43,0,0,1,542,141.09Z"/><circle class="cls-17" cx="530.74" cy="121.67" r="22.44" transform="translate(22.37 316.71) rotate(-33.9)"/><g class="cls-5"><path class="cls-13" d="M516.88,113.28a15.8,15.8,0,0,1,29.94,6.42c.09,2,3.22,2,3.14,0a18.94,18.94,0,0,0-34.63-10,17.61,17.61,0,0,0-1.18,2c-.92,1.79,1.8,3.36,2.73,1.55Z"/></g><path class="cls-18" d="M549.52,124.6a2.06,2.06,0,1,1-2.82-.75A2.07,2.07,0,0,1,549.52,124.6Z"/><path class="cls-19" d="M546.33,159.14l8.36-5.08a.64.64,0,0,0,.25-.84l-.05-.1a.64.64,0,0,0-.93-.27L545.64,158a.66.66,0,0,0-.2.92h0A.67.67,0,0,0,546.33,159.14Z"/><path class="cls-15" d="M550,132.08a22.22,22.22,0,1,1,2.58-11.22A22.43,22.43,0,0,1,550,132.08a.6.6,0,0,0,1,.56,23.42,23.42,0,1,0-14.57,11.61,23.65,23.65,0,0,0,14.57-11.61A.6.6,0,0,0,550,132.08Z"/><text class="cls-20" transform="translate(0 169.06)"><tspan class="cls-21">V</tspan><tspan x="106.31" y="0">i</tspan><tspan class="cls-22" x="154.41" y="0">d</tspan><tspan class="cls-23" x="245.93" y="0">e</tspan></text><text class="cls-20" transform="translate(619.1 169.06)">wl</text></g></g></g></svg>