<svg xmlns="http://www.w3.org/2000/svg" viewBox="0 0 784.89 224.11"><defs><style>.cls-1{isolation:isolate;}.cls-2{fill:#3053a2;}.cls-3{fill:#3354a0;}.cls-16,.cls-4{fill:#00295b;}.cls-5{fill:#0085c9;}.cls-6{fill:#ffd071;}.cls-7{fill:#cecece;}.cls-14,.cls-8{fill:#fff;}.cls-9{fill:#3a3a3c;}.cls-10{fill:#f6f6f6;}.cls-11{fill:#bbbcc0;mix-blend-mode:multiply;opacity:0.2;}.cls-12{fill:#d0e8f4;opacity:0.5;}.cls-13{opacity:0.22;}.cls-14{opacity:0.31;}.cls-15{fill:#5bb5dc;}.cls-16{font-size:155.65px;font-family:Kanit-SemiBold, Kanit;font-weight:600;}.cls-17{letter-spacing:-0.04em;}.cls-18{letter-spacing:-0.01em;}.cls-19{letter-spacing:0em;}</style></defs><g class="cls-1"><g id="레이어_2" data-name="레이어 2"><g id="Layer_1" data-name="Layer 1"><path class="cls-2" d="M368.28,13.1,375,82.92a14.7,14.7,0,0,0,22.54,11l53.74-34.32a14.69,14.69,0,0,0-.47-25.06L384.58,2.69C374.23-3.39,367.12,1.16,368.28,13.1Z"/><path class="cls-3" d="M554.8,47.69c-21.78-15.81-49.06-26-77.23-26h0c-28.18,0-55.46,10.23-77.23,26C374.81,66.21,346.9,104.89,346.9,135c0,27.91,11.62,48.47,33.27,65.17,24,18.49,66.78,23.65,97.38,23.65h0c30.59,0,73.41-5.16,97.37-23.65,21.65-16.7,33.28-37.26,33.28-65.17C608.22,104.89,580.3,66.21,554.8,47.69Z"/><path class="cls-4" d="M378.44,17.19l5.32,28C385,49.81,389.83,55,393,52.33l7.05-12.47c3.19-2.65,7.94-8.48,3.58-10.57L384.13,12.61C379.64,10.46,377.14,12.38,378.44,17.19Z"/><path class="cls-2" d="M584.18,13.21,577.43,83a14.7,14.7,0,0,1-22.54,11L501.15,59.69a14.69,14.69,0,0,1,.47-25.06L567.88,2.8C578.23-3.28,585.34,1.27,584.18,13.21Z"/><path class="cls-4" d="M574,17.3l-5.33,28c-1.26,4.67-6.06,9.84-9.26,7.19l-7-12.47c-3.19-2.65-7.94-8.48-3.58-10.57l19.53-16.68C572.82,10.56,575.32,12.49,574,17.3Z"/><path class="cls-5" d="M486.82,73.54c10.35-18.76,27.71-39.2,43-34.81,1.83.53,8.67,3.28,12.79,1.93,4.4-1.44,5-3.8,9.22-5.49,2.37-.94,6.79-.3,7.83,3.38,1,3.51-2,7.29-1.06,9.3.66,1.43.62.82,3.18,2.53,2.11,1.41,3.2,2.63,3,5.07-.28,4.5-6.09,9.39-12.2,11.66-25.33,9.41-32.3,7.25-41.92,16.22-7.34,6.86-6.28,9.28-14.59,13.69-5.68,3-12.17,1.44-15.52-4C476.83,86.85,485.36,76.18,486.82,73.54Z"/><path class="cls-5" d="M466.81,71.22c-10.34-18.76-27.7-39.2-43-34.8-1.82.52-8.67,3.27-12.79,1.92-4.39-1.44-5-3.8-9.22-5.49-2.37-.94-6.78-.3-7.82,3.38-1,3.51,2,7.29,1.06,9.3-.67,1.43-.62.82-3.18,2.53-2.12,1.41-3.21,2.63-3.06,5.07.28,4.5,6.1,9.39,12.21,11.66C426.37,74.2,433.35,72,443,81c7.34,6.85,6.27,9.27,14.59,13.68,5.67,3,12.17,1.44,15.52-4C476.8,84.53,468.27,73.86,466.81,71.22Z"/><path class="cls-6" d="M474.33,139.85l-12.64,22.83h34.16l-12.64-22.83A5,5,0,0,0,474.33,139.85Z"/><polygon class="cls-6" points="461.69 162.69 461.69 162.69 461.69 162.69 461.69 162.69"/><polygon class="cls-6" points="495.85 162.69 495.85 162.69 495.86 162.69 495.85 162.69"/><polygon class="cls-6" points="495.86 162.68 495.85 162.68 495.85 162.69 495.86 162.68"/><polygon class="cls-6" points="478.77 193.55 495.85 162.69 461.69 162.69 478.77 193.55"/><polygon class="cls-6" points="461.69 162.68 461.69 162.69 461.69 162.68 461.69 162.68"/><polygon class="cls-6" points="495.85 162.68 461.69 162.68 461.69 162.69 461.69 162.69 495.85 162.69 495.85 162.69 495.85 162.68"/><circle class="cls-7" cx="431.48" cy="110.51" r="50.71"/><circle class="cls-7" cx="525.82" cy="110.38" r="50.71"/><circle class="cls-8" cx="431.42" cy="110.44" r="46.13"/><ellipse class="cls-9" cx="431.42" cy="110.44" rx="31.36" ry="31.49"/><circle class="cls-8" cx="525.75" cy="110.44" r="46.13"/><ellipse class="cls-9" cx="525.75" cy="110.44" rx="31.36" ry="31.49"/><polygon class="cls-10" points="567.27 169.27 559.03 174.04 542.21 144.69 550.46 139.93 567.27 169.27"/><path class="cls-4" d="M570.49,184.23l-.1.05c-2.6,1.51-5.62,1.15-6.75-.8l-13.07-22.21,9.65-5.87L573.15,178C574.28,179.92,573.09,182.72,570.49,184.23Z"/><polygon class="cls-11" points="543.42 146.7 544.17 148.24 556.77 151.25 550.67 140.46 543.42 146.7"/><path class="cls-4" d="M558.65,105.59a28.66,28.66,0,1,0-10.46,39.17A28.67,28.67,0,0,0,558.65,105.59Zm-12.46,35.7a24.66,24.66,0,1,1,9-33.69A24.65,24.65,0,0,1,546.19,141.29Z"/><circle class="cls-12" cx="533.84" cy="119.95" r="24.66" transform="matrix(0.57, -0.82, 0.82, 0.57, 129.05, 488.07)"/><g class="cls-13"><path class="cls-8" d="M518.61,110.73a17.37,17.37,0,0,1,32.9,7.06c.1,2.21,3.54,2.23,3.45,0a20.81,20.81,0,0,0-38-11,19.67,19.67,0,0,0-1.3,2.21c-1,2,2,3.69,3,1.7Z"/></g><circle class="cls-14" cx="552.52" cy="124.31" r="2.27"/><path class="cls-15" d="M551,161.12l9.18-5.58a.73.73,0,0,0,.27-.93l0-.11a.73.73,0,0,0-1-.3l-9.14,5.68a.72.72,0,0,0-.22,1h0A.72.72,0,0,0,551,161.12Z"/><path class="cls-10" d="M555,131.39a24.4,24.4,0,1,1,2.84-12.33A24.58,24.58,0,0,1,555,131.39a.66.66,0,0,0,1.16.61,26,26,0,0,0,2.5-17.09,25.7,25.7,0,0,0-41.1-15.19,25.68,25.68,0,0,0-7.1,31.73,25.72,25.72,0,0,0,45.7.55A.66.66,0,0,0,555,131.39Z"/><text class="cls-16" transform="translate(0 166.52)"><tspan class="cls-17">V</tspan><tspan x="106.31" y="0">i</tspan><tspan class="cls-18" x="154.41" y="0">d</tspan><tspan class="cls-19" x="245.93" y="0">e</tspan></text><text class="cls-16" transform="translate(617.1 166.52)">wl</text></g></g></g></svg>