<svg xmlns="http://www.w3.org/2000/svg" viewBox="0 0 261.32 223.83"><defs><style>.cls-1{isolation:isolate;}.cls-2{fill:#3053a2;}.cls-3{fill:#3354a0;}.cls-4{fill:#00295b;}.cls-5{fill:#0085c9;}.cls-6{fill:#ffd071;}.cls-7{fill:#cecece;}.cls-14,.cls-8{fill:#fff;}.cls-9{fill:#3a3a3c;}.cls-10{fill:#f6f6f6;}.cls-11{fill:#bbbcc0;mix-blend-mode:multiply;opacity:0.2;}.cls-12{fill:#d0e8f4;opacity:0.5;}.cls-13{opacity:0.22;}.cls-14{opacity:0.31;}.cls-15{fill:#5bb5dc;}</style></defs><g class="cls-1"><g id="레이어_2" data-name="레이어 2"><g id="Layer_1" data-name="Layer 1"><path class="cls-2" d="M21.38,13.1l6.75,69.82a14.7,14.7,0,0,0,22.54,11l53.75-34.32A14.7,14.7,0,0,0,104,34.52L37.69,2.69C27.34-3.39,20.22,1.16,21.38,13.1Z"/><path class="cls-3" d="M207.9,47.69c-21.77-15.81-49.05-26-77.23-26h0c-28.17,0-55.45,10.23-77.23,26C27.91,66.21,0,104.89,0,135c0,27.91,11.63,48.47,33.28,65.17,24,18.49,66.78,23.65,97.37,23.65h0c30.59,0,73.42-5.16,97.38-23.65,21.65-16.7,33.27-37.26,33.27-65.17C261.32,104.89,233.41,66.21,207.9,47.69Z"/><path class="cls-4" d="M31.54,17.19l5.33,28c1.26,4.67,6.07,9.84,9.26,7.19l7-12.47c3.2-2.65,7.94-8.48,3.58-10.57L37.23,12.61C32.74,10.46,30.24,12.38,31.54,17.19Z"/><path class="cls-2" d="M237.29,13.21,230.53,83A14.69,14.69,0,0,1,208,94L154.25,59.69a14.69,14.69,0,0,1,.47-25.06L221,2.8C231.33-3.28,238.44,1.27,237.29,13.21Z"/><path class="cls-4" d="M227.12,17.3l-5.32,28c-1.27,4.67-6.07,9.84-9.26,7.19L205.48,40c-3.19-2.65-7.94-8.48-3.57-10.57l19.52-16.68C225.93,10.56,228.42,12.49,227.12,17.3Z"/><path class="cls-5" d="M139.93,73.54c10.35-18.76,27.7-39.2,43-34.81,1.83.53,8.67,3.28,12.79,1.93,4.39-1.44,5-3.8,9.22-5.49,2.37-.94,6.78-.3,7.82,3.38,1,3.51-2,7.29-1.06,9.3.67,1.43.62.82,3.19,2.53,2.11,1.41,3.2,2.63,3.05,5.07-.28,4.5-6.1,9.39-12.21,11.66-25.32,9.41-32.3,7.25-41.91,16.22-7.35,6.86-6.28,9.28-14.6,13.69-5.67,3-12.17,1.44-15.52-4C129.94,86.85,138.47,76.18,139.93,73.54Z"/><path class="cls-5" d="M119.92,71.22C109.57,52.46,92.21,32,77,36.42c-1.83.52-8.67,3.27-12.79,1.92-4.4-1.44-5-3.8-9.22-5.49-2.37-.94-6.79-.3-7.83,3.38-1,3.51,2,7.29,1.06,9.3-.66,1.43-.62.82-3.18,2.53-2.11,1.41-3.2,2.63-3,5.07.28,4.5,6.09,9.39,12.2,11.66C79.48,74.2,86.45,72,96.07,81c7.35,6.85,6.28,9.27,14.59,13.68,5.68,3,12.17,1.44,15.52-4C129.91,84.53,121.38,73.86,119.92,71.22Z"/><path class="cls-6" d="M127.43,139.85l-12.64,22.83H149l-12.64-22.83A5,5,0,0,0,127.43,139.85Z"/><polygon class="cls-6" points="114.79 162.69 114.79 162.69 114.79 162.69 114.79 162.69"/><polygon class="cls-6" points="148.96 162.69 148.96 162.69 148.96 162.69 148.96 162.69"/><polygon class="cls-6" points="148.96 162.68 148.96 162.68 148.96 162.69 148.96 162.68"/><polygon class="cls-6" points="131.87 193.55 148.96 162.69 114.79 162.69 131.87 193.55"/><polygon class="cls-6" points="114.79 162.68 114.79 162.69 114.79 162.68 114.79 162.68"/><polygon class="cls-6" points="148.96 162.68 114.79 162.68 114.79 162.69 114.79 162.69 148.96 162.69 148.96 162.69 148.96 162.68"/><circle class="cls-7" cx="84.59" cy="110.51" r="50.71"/><circle class="cls-7" cx="178.92" cy="110.38" r="50.71" transform="translate(-25.65 158.85) rotate(-45)"/><circle class="cls-8" cx="84.52" cy="110.44" r="46.13" transform="translate(-53.34 92.12) rotate(-45)"/><ellipse class="cls-9" cx="84.52" cy="110.44" rx="31.36" ry="31.49"/><circle class="cls-8" cx="178.86" cy="110.44" r="46.13" transform="translate(-25.71 158.82) rotate(-45)"/><ellipse class="cls-9" cx="178.86" cy="110.44" rx="31.36" ry="31.49"/><polygon class="cls-10" points="220.38 169.27 212.13 174.04 195.32 144.69 203.56 139.93 220.38 169.27"/><path class="cls-4" d="M223.59,184.23l-.09.05c-2.6,1.51-5.63,1.15-6.75-.8l-13.08-22.21,9.65-5.87L226.26,178C227.38,179.92,226.19,182.72,223.59,184.23Z"/><polygon class="cls-11" points="196.52 146.7 197.27 148.24 209.87 151.25 203.77 140.46 196.52 146.7"/><path class="cls-4" d="M211.76,105.59a28.67,28.67,0,1,0-10.46,39.17A28.68,28.68,0,0,0,211.76,105.59Zm-12.47,35.7a24.66,24.66,0,1,1,9-33.69A24.65,24.65,0,0,1,199.29,141.29Z"/><circle class="cls-12" cx="186.94" cy="119.95" r="24.66" transform="translate(-35.12 124.66) rotate(-33.9)"/><g class="cls-13"><path class="cls-8" d="M171.72,110.73a17.37,17.37,0,0,1,32.9,7.06c.09,2.21,3.54,2.23,3.44,0a20.81,20.81,0,0,0-38-11,19.67,19.67,0,0,0-1.3,2.21c-1,2,2,3.69,3,1.7Z"/></g><path class="cls-14" d="M207.58,123.18a2.26,2.26,0,1,1-3.1-.83A2.27,2.27,0,0,1,207.58,123.18Z"/><path class="cls-15" d="M204.08,161.12l9.18-5.58a.72.72,0,0,0,.28-.93l0-.11a.73.73,0,0,0-1-.3l-9.14,5.68a.73.73,0,0,0-.23,1h0A.72.72,0,0,0,204.08,161.12Z"/><path class="cls-10" d="M208.1,131.39a24.42,24.42,0,1,1,2.84-12.33,24.3,24.3,0,0,1-2.84,12.33.66.66,0,0,0,1.16.61,26,26,0,0,0,2.51-17.09,25.69,25.69,0,0,0-8.65-14.64A25.72,25.72,0,1,0,209.26,132,.66.66,0,0,0,208.1,131.39Z"/></g></g></g></svg>